<mxfile host="65bd71144e">
    <diagram id="TnihTElxJg1P-cTFlsxx" name="Page-1">
        <mxGraphModel dx="1621" dy="822" grid="1" gridSize="10" guides="1" tooltips="1" connect="1" arrows="1" fold="1" page="1" pageScale="1" pageWidth="850" pageHeight="1100" math="0" shadow="0">
            <root>
                <mxCell id="0"/>
                <mxCell id="1" parent="0"/>
                <mxCell id="88" value="security guard" style="swimlane;whiteSpace=wrap" vertex="1" parent="1">
                    <mxGeometry x="910" y="40" width="280" height="1192" as="geometry"/>
                </mxCell>
                <mxCell id="142" value="conform reservation order" style="whiteSpace=wrap;html=1;rounded=0;" vertex="1" parent="88">
                    <mxGeometry x="70" y="510" width="120" height="60" as="geometry"/>
                </mxCell>
                <mxCell id="148" value="conform payment" style="whiteSpace=wrap;html=1;rounded=0;" vertex="1" parent="88">
                    <mxGeometry x="70" y="760" width="120" height="60" as="geometry"/>
                </mxCell>
                <mxCell id="160" value="view feedback" style="whiteSpace=wrap;html=1;rounded=0;" vertex="1" parent="88">
                    <mxGeometry x="110" y="1060" width="120" height="60" as="geometry"/>
                </mxCell>
                <mxCell id="163" value="" style="ellipse;shape=startState;fillColor=#000000;strokeColor=#ff0000;" vertex="1" parent="88">
                    <mxGeometry x="155" y="1150" width="30" height="33.18181818181818" as="geometry"/>
                </mxCell>
                <mxCell id="164" style="edgeStyle=none;html=1;" edge="1" parent="88" source="160" target="163">
                    <mxGeometry relative="1" as="geometry"/>
                </mxCell>
                <mxCell id="89" value="System" style="swimlane;whiteSpace=wrap" vertex="1" parent="1">
                    <mxGeometry x="630" y="40" width="280" height="1190" as="geometry"/>
                </mxCell>
                <mxCell id="109" value="provide parking list" style="rounded=0;whiteSpace=wrap;html=1;" vertex="1" parent="89">
                    <mxGeometry x="80" y="109.99424242424239" width="170" height="44.242424242424235" as="geometry"/>
                </mxCell>
                <mxCell id="133" value="" style="edgeStyle=none;html=1;" edge="1" parent="89" source="130" target="132">
                    <mxGeometry relative="1" as="geometry"/>
                </mxCell>
                <mxCell id="134" value="no" style="edgeLabel;html=1;align=center;verticalAlign=middle;resizable=0;points=[];" vertex="1" connectable="0" parent="133">
                    <mxGeometry x="-0.26" relative="1" as="geometry">
                        <mxPoint as="offset"/>
                    </mxGeometry>
                </mxCell>
                <mxCell id="137" value="" style="edgeStyle=none;html=1;" edge="1" parent="89" source="130" target="136">
                    <mxGeometry relative="1" as="geometry"/>
                </mxCell>
                <mxCell id="138" value="yes" style="edgeLabel;html=1;align=center;verticalAlign=middle;resizable=0;points=[];" vertex="1" connectable="0" parent="137">
                    <mxGeometry x="-0.2" relative="1" as="geometry">
                        <mxPoint as="offset"/>
                    </mxGeometry>
                </mxCell>
                <mxCell id="130" value="check order validity" style="rhombus;whiteSpace=wrap;html=1;rounded=0;" vertex="1" parent="89">
                    <mxGeometry x="10" y="310" width="100" height="100" as="geometry"/>
                </mxCell>
                <mxCell id="135" style="edgeStyle=none;html=1;entryX=0.75;entryY=1;entryDx=0;entryDy=0;" edge="1" parent="89" source="132" target="109">
                    <mxGeometry relative="1" as="geometry"/>
                </mxCell>
                <mxCell id="132" value="error" style="whiteSpace=wrap;html=1;rounded=0;" vertex="1" parent="89">
                    <mxGeometry x="150" y="330" width="120" height="60" as="geometry"/>
                </mxCell>
                <mxCell id="136" value="create pending order" style="whiteSpace=wrap;html=1;rounded=0;" vertex="1" parent="89">
                    <mxGeometry x="5" y="510" width="120" height="60" as="geometry"/>
                </mxCell>
                <mxCell id="144" value="update order status" style="whiteSpace=wrap;html=1;rounded=0;" vertex="1" parent="89">
                    <mxGeometry x="10" y="630" width="120" height="60" as="geometry"/>
                </mxCell>
                <mxCell id="153" value="" style="edgeStyle=none;html=1;" edge="1" parent="89" source="150" target="152">
                    <mxGeometry relative="1" as="geometry"/>
                </mxCell>
                <mxCell id="150" value="achive order" style="whiteSpace=wrap;html=1;rounded=0;" vertex="1" parent="89">
                    <mxGeometry x="60" y="840" width="120" height="60" as="geometry"/>
                </mxCell>
                <mxCell id="152" value="ask for feedback" style="whiteSpace=wrap;html=1;rounded=0;" vertex="1" parent="89">
                    <mxGeometry x="60" y="940" width="120" height="60" as="geometry"/>
                </mxCell>
                <mxCell id="156" value="save feedback" style="whiteSpace=wrap;html=1;rounded=0;" vertex="1" parent="89">
                    <mxGeometry x="70" y="1060" width="120" height="60" as="geometry"/>
                </mxCell>
                <mxCell id="90" value="user" style="swimlane;whiteSpace=wrap" vertex="1" parent="1">
                    <mxGeometry x="350" y="40" width="280" height="1192" as="geometry"/>
                </mxCell>
                <mxCell id="108" value="" style="group" vertex="1" connectable="0" parent="90">
                    <mxGeometry x="-220" y="50.00454545454545" width="490" height="743.5454545454545" as="geometry"/>
                </mxCell>
                <mxCell id="110" value="" style="ellipse;shape=startState;fillColor=#000000;strokeColor=#ff0000;" vertex="1" parent="108">
                    <mxGeometry x="350.5" width="30" height="33.18181818181818" as="geometry"/>
                </mxCell>
                <mxCell id="111" value="request available parking list" style="rounded=0;whiteSpace=wrap;html=1;" vertex="1" parent="108">
                    <mxGeometry x="280.5" y="59.994242424242444" width="170" height="44.242424242424235" as="geometry"/>
                </mxCell>
                <mxCell id="113" style="edgeStyle=orthogonalEdgeStyle;rounded=0;orthogonalLoop=1;jettySize=auto;html=1;entryX=0.5;entryY=0;entryDx=0;entryDy=0;" edge="1" parent="108" source="110" target="111">
                    <mxGeometry relative="1" as="geometry"/>
                </mxCell>
                <mxCell id="127" value="create reservation order" style="whiteSpace=wrap;html=1;rounded=0;" vertex="1" parent="108">
                    <mxGeometry x="300" y="179.99333333333328" width="120" height="60" as="geometry"/>
                </mxCell>
                <mxCell id="146" value="payment" style="whiteSpace=wrap;html=1;rounded=0;" vertex="1" parent="108">
                    <mxGeometry x="305.5" y="579.9954545454545" width="120" height="60" as="geometry"/>
                </mxCell>
                <mxCell id="154" value="give feedback" style="whiteSpace=wrap;html=1;rounded=0;" vertex="1" parent="90">
                    <mxGeometry x="100" y="940" width="120" height="60" as="geometry"/>
                </mxCell>
                <mxCell id="126" style="edgeStyle=none;html=1;" edge="1" parent="1" source="111" target="109">
                    <mxGeometry relative="1" as="geometry"/>
                </mxCell>
                <mxCell id="128" value="" style="edgeStyle=none;html=1;" edge="1" parent="1" source="109" target="127">
                    <mxGeometry relative="1" as="geometry">
                        <Array as="points">
                            <mxPoint x="795" y="300"/>
                        </Array>
                    </mxGeometry>
                </mxCell>
                <mxCell id="131" value="" style="edgeStyle=none;html=1;" edge="1" parent="1" source="127" target="130">
                    <mxGeometry relative="1" as="geometry">
                        <Array as="points">
                            <mxPoint x="490" y="400"/>
                        </Array>
                    </mxGeometry>
                </mxCell>
                <mxCell id="143" value="" style="edgeStyle=none;html=1;" edge="1" parent="1" source="136" target="142">
                    <mxGeometry relative="1" as="geometry"/>
                </mxCell>
                <mxCell id="145" value="" style="edgeStyle=none;html=1;" edge="1" parent="1" source="142" target="144">
                    <mxGeometry relative="1" as="geometry">
                        <Array as="points">
                            <mxPoint x="1040" y="700"/>
                        </Array>
                    </mxGeometry>
                </mxCell>
                <mxCell id="147" value="" style="edgeStyle=none;html=1;" edge="1" parent="1" source="144" target="146">
                    <mxGeometry relative="1" as="geometry"/>
                </mxCell>
                <mxCell id="149" value="" style="edgeStyle=none;html=1;" edge="1" parent="1" source="146" target="148">
                    <mxGeometry relative="1" as="geometry">
                        <Array as="points">
                            <mxPoint x="496" y="830"/>
                        </Array>
                    </mxGeometry>
                </mxCell>
                <mxCell id="151" value="" style="edgeStyle=none;html=1;" edge="1" parent="1" source="148" target="150">
                    <mxGeometry relative="1" as="geometry">
                        <Array as="points">
                            <mxPoint x="1040" y="910"/>
                        </Array>
                    </mxGeometry>
                </mxCell>
                <mxCell id="155" value="" style="edgeStyle=none;html=1;" edge="1" parent="1" source="152" target="154">
                    <mxGeometry relative="1" as="geometry"/>
                </mxCell>
                <mxCell id="157" value="" style="edgeStyle=none;html=1;" edge="1" parent="1" source="154" target="156">
                    <mxGeometry relative="1" as="geometry">
                        <Array as="points">
                            <mxPoint x="510" y="1130"/>
                        </Array>
                    </mxGeometry>
                </mxCell>
                <mxCell id="161" style="edgeStyle=none;html=1;entryX=0;entryY=0.5;entryDx=0;entryDy=0;" edge="1" parent="1" source="156" target="160">
                    <mxGeometry relative="1" as="geometry"/>
                </mxCell>
            </root>
        </mxGraphModel>
    </diagram>
</mxfile>